<svg width="29" height="29" viewBox="0 0 29 29" fill="none" xmlns="http://www.w3.org/2000/svg">
<path d="M12.9141 22.8516H8.78906C8.0625 22.8516 7.41797 22.8281 6.84375 22.7461C3.76172 22.4062 2.92969 20.9531 2.92969 16.9922V11.1328C2.92969 7.17187 3.76172 5.71875 6.84375 5.37891C7.41797 5.29688 8.0625 5.27344 8.78906 5.27344H12.8438" stroke="#2A394A" stroke-width="1.75781" stroke-linecap="round" stroke-linejoin="round"/>
<path d="M17.6016 5.27344H19.3359C20.0625 5.27344 20.707 5.29688 21.2812 5.37891C24.3633 5.71875 25.1953 7.17187 25.1953 11.1328V16.9922C25.1953 20.9531 24.3633 22.4062 21.2812 22.7461C20.707 22.8281 20.0625 22.8516 19.3359 22.8516H17.6016" stroke="#2A394A" stroke-width="1.75781" stroke-linecap="round" stroke-linejoin="round"/>
<path d="M17.5781 2.34375V25.7812" stroke="#2A394A" stroke-width="1.75781" stroke-linecap="round" stroke-linejoin="round"/>
<path d="M12.9994 14.0625H13.0099" stroke="#2A394A" stroke-width="2.34375" stroke-linecap="round" stroke-linejoin="round"/>
<path d="M8.31192 14.0625H8.32245" stroke="#2A394A" stroke-width="2.34375" stroke-linecap="round" stroke-linejoin="round"/>
</svg>
