<svg width="29" height="29" viewBox="0 0 29 29" fill="none" xmlns="http://www.w3.org/2000/svg">
<path d="M14.0625 14.1875C17.2985 14.1875 19.9219 11.5642 19.9219 8.32812C19.9219 5.09208 17.2985 2.46875 14.0625 2.46875C10.8265 2.46875 8.20312 5.09208 8.20312 8.32812C8.20312 11.5642 10.8265 14.1875 14.0625 14.1875Z" stroke="#2A394A" stroke-width="1.75781" stroke-linecap="round" stroke-linejoin="round"/>
<path d="M3.99414 25.9062C3.99414 21.3711 8.50586 17.7031 14.0605 17.7031C15.1855 17.7031 16.2754 17.8555 17.2949 18.1367" stroke="#2A394A" stroke-width="1.75781" stroke-linecap="round" stroke-linejoin="round"/>
<path d="M25.7812 21.2188C25.7812 21.5937 25.7344 21.957 25.6406 22.3086C25.5352 22.7773 25.3477 23.2344 25.1016 23.6328C24.293 24.9922 22.8047 25.9062 21.0938 25.9062C19.8867 25.9062 18.7969 25.4492 17.9766 24.6992C17.625 24.3945 17.3203 24.0312 17.0859 23.6328C16.6523 22.9297 16.4062 22.0977 16.4062 21.2188C16.4062 19.9531 16.9102 18.793 17.7305 17.9492C18.5859 17.0703 19.7812 16.5312 21.0938 16.5312C22.4766 16.5312 23.7305 17.1289 24.5742 18.0899C25.3242 18.9219 25.7812 20.0234 25.7812 21.2188Z" stroke="#2A394A" stroke-width="1.75781" stroke-miterlimit="10" stroke-linecap="round" stroke-linejoin="round"/>
<path d="M22.2988 19.9768L19.8262 22.4494" stroke="#2A394A" stroke-width="1.75781" stroke-miterlimit="10" stroke-linecap="round" stroke-linejoin="round"/>
<path d="M19.8516 20.0005L22.3359 22.4731" stroke="#2A394A" stroke-width="1.75781" stroke-miterlimit="10" stroke-linecap="round" stroke-linejoin="round"/>
</svg>
